<?xml version="1.0" standalone="no"?>
<!DOCTYPE svg PUBLIC "-//W3C//DTD SVG 20010904//EN"
 "http://www.w3.org/TR/2001/REC-SVG-20010904/DTD/svg10.dtd">
<svg version="1.0" xmlns="http://www.w3.org/2000/svg"
 width="515.000000pt" height="515.000000pt" viewBox="0 0 515.000000 515.000000"
 preserveAspectRatio="xMidYMid meet">
<metadata>
Created by potrace 1.14, written by Peter Selinger 2001-2017
</metadata>
<g transform="translate(0.000000,515.000000) scale(0.100000,-0.100000)"
fill="#000000" stroke="none">
<path d="M2435 4696 l-130 -173 -140 109 c-77 60 -153 120 -169 134 -17 13
-33 24 -36 24 -4 0 -24 -44 -44 -97 -21 -54 -46 -116 -55 -138 -10 -22 -28
-68 -41 -102 -14 -35 -27 -63 -31 -63 -6 0 -257 105 -332 139 -54 25 -71 29
-72 16 -1 -5 -5 -39 -9 -75 -4 -36 -9 -76 -11 -90 -2 -14 -6 -50 -10 -80 -12
-86 -12 -93 -14 -125 -2 -52 -11 -58 -77 -46 -32 6 -79 13 -104 16 -25 3 -56
8 -70 10 -14 3 -43 7 -65 10 -22 2 -60 8 -84 11 l-43 7 6 -54 c4 -30 11 -81
16 -114 26 -173 37 -266 31 -269 -3 -2 -37 -7 -76 -11 -38 -4 -78 -9 -87 -10
-9 -2 -48 -7 -85 -10 -37 -4 -86 -10 -109 -14 -22 -4 -48 -7 -57 -5 -17 2 -21
-23 -6 -36 8 -8 161 -371 157 -375 -1 -1 -91 -38 -198 -80 -107 -43 -196 -79
-198 -81 -5 -3 15 -40 31 -56 7 -7 53 -65 102 -128 50 -63 100 -126 112 -139
l21 -24 -128 -97 c-70 -54 -149 -112 -174 -130 -25 -19 -46 -37 -46 -41 0 -4
33 -31 72 -60 40 -30 75 -56 78 -59 3 -3 47 -36 98 -74 50 -37 92 -71 92 -75
0 -3 -59 -80 -130 -171 -72 -91 -130 -167 -130 -170 0 -7 32 -21 205 -89 72
-28 138 -56 147 -61 10 -6 25 -10 33 -10 8 0 15 -4 15 -8 0 -4 -38 -97 -85
-207 -47 -109 -85 -199 -85 -200 0 -1 6 -2 13 -2 14 0 110 -12 147 -17 14 -3
72 -9 130 -16 142 -15 149 -17 146 -38 -3 -16 -17 -108 -21 -142 -10 -80 -19
-136 -29 -199 l-13 -74 56 7 c84 9 133 16 161 21 14 2 48 7 75 11 28 3 70 10
95 14 25 5 46 7 47 6 1 -1 -27 -53 -63 -116 -36 -63 -76 -133 -89 -155 -12
-22 -64 -112 -115 -200 -52 -88 -104 -179 -118 -203 l-24 -42 785 0 786 0 6
21 7 21 22 -21 c28 -27 64 -27 92 0 l22 21 7 -21 6 -21 785 0 784 0 -21 38
c-11 20 -102 179 -203 352 -101 173 -182 318 -180 321 2 4 23 3 46 -1 24 -5
64 -11 90 -14 26 -3 58 -8 70 -10 13 -3 46 -8 73 -11 79 -10 119 -16 134 -21
11 -3 12 6 7 48 -4 29 -9 69 -11 88 -2 19 -7 52 -11 73 -3 20 -7 47 -9 60 -1
12 -6 42 -9 67 -15 95 -15 100 8 104 23 5 148 20 341 42 33 3 63 8 67 10 5 4
-38 113 -87 221 -8 17 -15 34 -15 37 0 3 -14 36 -31 72 -16 37 -26 71 -22 75
4 4 94 42 198 84 105 42 192 78 194 81 3 3 -113 160 -129 174 -11 10 -130 167
-130 172 0 3 77 63 170 134 94 70 169 131 168 135 -2 5 -80 66 -174 136 l-171
128 134 169 c73 93 133 172 133 177 0 5 -4 9 -10 9 -9 0 -380 149 -389 157 -2
2 0 13 6 26 6 12 16 36 23 52 7 17 41 96 76 177 35 81 64 149 64 151 0 2 -19
5 -42 6 -24 1 -52 3 -63 5 -11 3 -23 5 -27 5 -4 1 -5 9 -2 19 5 16 5 16 -6 0
-8 -13 -20 -16 -43 -13 -36 5 -92 12 -184 21 -57 6 -82 21 -69 42 3 6 9 44 20
127 8 60 19 132 22 149 2 10 6 43 10 74 l6 55 -48 -7 c-27 -3 -60 -8 -74 -10
-45 -8 -104 -17 -180 -27 -41 -5 -89 -11 -105 -14 -28 -5 -31 -2 -33 22 -2 31
-7 78 -22 193 -5 41 -12 98 -15 125 -4 42 -11 86 -14 91 -1 1 -89 -36 -198
-82 -108 -46 -199 -84 -203 -84 -3 0 -42 90 -85 200 -44 110 -82 200 -85 200
-3 0 -57 -41 -120 -91 -63 -49 -140 -110 -170 -133 l-55 -43 -130 173 c-71 96
-132 174 -135 174 -3 0 -64 -78 -135 -174z"/>
<path d="M4675 3910 c-3 -5 -1 -10 4 -10 6 0 11 5 11 10 0 6 -2 10 -4 10 -3 0
-8 -4 -11 -10z"/>
</g>
</svg>
